M48
; DRILL file {KiCad 5.1.6-c6e7f7d~87~ubuntu20.04.1} date Wed Nov 11 00:29:14 2020
; FORMAT={-:-/ absolute / inch / decimal}
; #@! TF.CreationDate,2020-11-11T00:29:14-05:00
; #@! TF.GenerationSoftware,Kicad,Pcbnew,5.1.6-c6e7f7d~87~ubuntu20.04.1
FMAT,2
INCH
T1C0.0157
T2C0.0354
T3C0.0394
T4C0.0433
T5C0.0512
T6C0.0650
%
G90
G05
T1
X2.66Y-3.115
X3.765Y-3.86
X4.02Y-2.54
X5.375Y-2.69
X5.47Y-2.52
X5.69Y-2.455
X5.765Y-2.305
T2
X2.23Y-3.72
X2.33Y-3.72
X2.43Y-3.72
T3
X2.1512Y-2.5356
X2.1512Y-2.6356
X2.1512Y-2.7356
X2.1512Y-2.8356
X2.1512Y-2.9356
X2.1512Y-3.0356
X2.1512Y-3.1356
X2.1512Y-3.2356
X4.1336Y-3.47
X4.1336Y-3.57
X4.1336Y-3.67
X4.1336Y-3.77
X4.1336Y-3.87
X4.1336Y-3.97
X4.5338Y-3.47
X4.5338Y-3.57
X4.5338Y-3.67
X4.5338Y-3.77
X4.5338Y-3.87
X4.5338Y-3.97
X3.165Y-2.16
X3.165Y-2.26
X3.165Y-2.36
X3.165Y-2.46
X3.165Y-2.56
X3.165Y-2.66
X3.165Y-2.76
X3.165Y-2.86
X3.165Y-2.96
X3.165Y-3.06
X3.165Y-3.16
X3.165Y-3.26
X3.165Y-3.36
X3.165Y-3.46
X3.165Y-3.56
X3.765Y-2.16
X3.765Y-2.26
X3.765Y-2.36
X3.765Y-2.46
X3.765Y-2.56
X3.765Y-2.66
X3.765Y-2.76
X3.765Y-2.86
X3.765Y-2.96
X3.765Y-3.06
X3.765Y-3.16
X3.765Y-3.26
X3.765Y-3.36
X3.765Y-3.46
X3.765Y-3.56
X5.3744Y-2.1112
X5.4744Y-2.1112
X5.5744Y-2.1112
X5.6744Y-2.1112
X5.7744Y-2.1112
X5.8744Y-2.1112
X5.9744Y-2.1112
X6.0744Y-2.1112
X4.2036Y-2.205
X4.2036Y-2.305
X4.2036Y-2.405
X4.2036Y-2.505
X4.2036Y-2.605
X4.2036Y-2.705
X4.6038Y-2.205
X4.6038Y-2.305
X4.6038Y-2.405
X4.6038Y-2.505
X4.6038Y-2.605
X4.6038Y-2.705
X4.9901Y-4.0212
X4.9901Y-4.1212
X4.9901Y-4.2212
X4.9901Y-4.3212
X4.9901Y-4.4212
X4.9901Y-4.5212
X4.9901Y-4.6212
X4.9901Y-4.7212
X4.9901Y-4.8212
X4.9901Y-4.9212
X5.7656Y-4.0693
X5.7656Y-4.1693
X5.7656Y-4.2693
X5.7656Y-4.3693
X5.7656Y-4.4693
X5.7656Y-4.5693
X5.7656Y-4.6693
X5.7656Y-4.7693
X5.7656Y-4.8693
T4
X3.125Y-4.9291
X3.125Y-5.185
X3.3022Y-4.9291
X3.3022Y-5.185
X3.51Y-4.9341
X3.51Y-5.19
X3.6872Y-4.9341
X3.6872Y-5.19
X2.325Y-4.9241
X2.325Y-5.18
X2.5022Y-4.9241
X2.5022Y-5.18
X3.885Y-4.9341
X3.885Y-5.19
X4.0622Y-4.9341
X4.0622Y-5.19
X4.27Y-4.9341
X4.27Y-5.19
X4.4472Y-4.9341
X4.4472Y-5.19
X2.74Y-4.9241
X2.74Y-5.18
X2.9172Y-4.9241
X2.9172Y-5.18
T5
X2.31Y-4.1
X2.31Y-4.2969
X2.31Y-4.4937
T6
X3.165Y-2.06
X3.165Y-3.66
X3.765Y-2.06
X3.765Y-3.66
T0
M30
