%TF.GenerationSoftware,KiCad,Pcbnew,5.1.6-c6e7f7d~87~ubuntu20.04.1*%
%TF.CreationDate,2020-11-03T02:20:16-05:00*%
%TF.ProjectId,radio,72616469-6f2e-46b6-9963-61645f706362,rev?*%
%TF.SameCoordinates,Original*%
%TF.FileFunction,Copper,L1,Top*%
%TF.FilePolarity,Positive*%
%FSLAX46Y46*%
G04 Gerber Fmt 4.6, Leading zero omitted, Abs format (unit mm)*
G04 Created by KiCad (PCBNEW 5.1.6-c6e7f7d~87~ubuntu20.04.1) date 2020-11-03 02:20:16*
%MOMM*%
%LPD*%
G01*
G04 APERTURE LIST*
%TA.AperFunction,ComponentPad*%
%ADD10O,1.700000X1.700000*%
%TD*%
%TA.AperFunction,ComponentPad*%
%ADD11R,1.700000X1.700000*%
%TD*%
%TA.AperFunction,ComponentPad*%
%ADD12C,1.676400*%
%TD*%
%TA.AperFunction,ComponentPad*%
%ADD13C,2.000000*%
%TD*%
%TA.AperFunction,ComponentPad*%
%ADD14O,2.720000X3.240000*%
%TD*%
%TA.AperFunction,ComponentPad*%
%ADD15C,1.800000*%
%TD*%
%TA.AperFunction,ComponentPad*%
%ADD16R,1.800000X1.800000*%
%TD*%
%TA.AperFunction,ViaPad*%
%ADD17C,0.800000*%
%TD*%
%TA.AperFunction,Conductor*%
%ADD18C,0.250000*%
%TD*%
G04 APERTURE END LIST*
D10*
%TO.P,U8,8*%
%TO.N,+3V3*%
X136510000Y-53624000D03*
%TO.P,U8,7*%
%TO.N,Net-(U4-Pad6)*%
X139050000Y-53624000D03*
%TO.P,U8,6*%
%TO.N,Net-(U5-Pad1)*%
X141590000Y-53624000D03*
%TO.P,U8,5*%
%TO.N,Net-(U5-Pad2)*%
X144130000Y-53624000D03*
%TO.P,U8,4*%
%TO.N,Net-(U5-Pad5)*%
X146670000Y-53624000D03*
%TO.P,U8,3*%
%TO.N,Net-(U5-Pad6)*%
X149210000Y-53624000D03*
%TO.P,U8,2*%
%TO.N,GND*%
X151750000Y-53624000D03*
D11*
%TO.P,U8,1*%
%TO.N,+3V3*%
X154290000Y-53624000D03*
%TD*%
D10*
%TO.P,U7,10*%
%TO.N,Net-(U6-Pad4)*%
X126749000Y-124998000D03*
%TO.P,U7,9*%
%TO.N,Net-(U6-Pad7)*%
X126749000Y-122458000D03*
%TO.P,U7,8*%
%TO.N,GND*%
X126749000Y-119918000D03*
%TO.P,U7,7*%
%TO.N,+3V3*%
X126749000Y-117378000D03*
%TO.P,U7,6*%
%TO.N,Net-(U4-Pad1)*%
X126749000Y-114838000D03*
%TO.P,U7,5*%
%TO.N,Net-(U4-Pad2)*%
X126749000Y-112298000D03*
%TO.P,U7,4*%
%TO.N,Net-(U7-Pad4)*%
X126749000Y-109758000D03*
%TO.P,U7,3*%
%TO.N,Net-(U4-Pad5)*%
X126749000Y-107218000D03*
%TO.P,U7,2*%
%TO.N,Net-(U7-Pad2)*%
X126749000Y-104678000D03*
D11*
%TO.P,U7,1*%
%TO.N,Net-(U7-Pad1)*%
X126749000Y-102138000D03*
%TD*%
D10*
%TO.P,U6,9*%
%TO.N,Net-(U6-Pad9)*%
X146445000Y-103361000D03*
%TO.P,U6,8*%
%TO.N,Net-(U6-Pad8)*%
X146445000Y-105901000D03*
%TO.P,U6,7*%
%TO.N,Net-(U6-Pad7)*%
X146445000Y-108441000D03*
%TO.P,U6,6*%
%TO.N,GND*%
X146445000Y-110981000D03*
%TO.P,U6,5*%
X146445000Y-113521000D03*
%TO.P,U6,4*%
%TO.N,Net-(U6-Pad4)*%
X146445000Y-116061000D03*
%TO.P,U6,3*%
%TO.N,Net-(U6-Pad3)*%
X146445000Y-118601000D03*
%TO.P,U6,2*%
%TO.N,GND*%
X146445000Y-121141000D03*
D11*
%TO.P,U6,1*%
%TO.N,+5V*%
X146445000Y-123681000D03*
%TD*%
D10*
%TO.P,U5,7*%
%TO.N,/LCD_SCE*%
X106137000Y-56008000D03*
%TO.P,U5,10*%
%TO.N,+5V*%
X106137000Y-63628000D03*
%TO.P,U5,11*%
%TO.N,/LCD_DC*%
X106137000Y-66168000D03*
%TO.P,U5,8*%
%TO.N,/LCD_RST*%
X106137000Y-58548000D03*
D11*
%TO.P,U5,12*%
%TO.N,/LCD_DN*%
X106137000Y-68708000D03*
D10*
%TO.P,U5,9*%
%TO.N,GND*%
X106137000Y-61088000D03*
%TO.P,U5,6*%
%TO.N,Net-(U5-Pad6)*%
X116937000Y-56008000D03*
%TO.P,U5,5*%
%TO.N,Net-(U5-Pad5)*%
X116937000Y-58548000D03*
%TO.P,U5,4*%
%TO.N,GND*%
X116937000Y-61088000D03*
%TO.P,U5,3*%
%TO.N,+3V3*%
X116937000Y-63628000D03*
%TO.P,U5,2*%
%TO.N,Net-(U5-Pad2)*%
X116937000Y-66168000D03*
D11*
%TO.P,U5,1*%
%TO.N,Net-(U5-Pad1)*%
X116937000Y-68708000D03*
%TD*%
D10*
%TO.P,U4,7*%
%TO.N,/LCD_SCLK*%
X104359000Y-88139000D03*
%TO.P,U4,10*%
%TO.N,+5V*%
X104359000Y-95759000D03*
%TO.P,U4,11*%
%TO.N,/Si4_SCLK*%
X104359000Y-98299000D03*
%TO.P,U4,8*%
%TO.N,/Si4_RST*%
X104359000Y-90679000D03*
D11*
%TO.P,U4,12*%
%TO.N,/Si4_SDIO*%
X104359000Y-100839000D03*
D10*
%TO.P,U4,9*%
%TO.N,GND*%
X104359000Y-93219000D03*
%TO.P,U4,6*%
%TO.N,Net-(U4-Pad6)*%
X115159000Y-88139000D03*
%TO.P,U4,5*%
%TO.N,Net-(U4-Pad5)*%
X115159000Y-90679000D03*
%TO.P,U4,4*%
%TO.N,GND*%
X115159000Y-93219000D03*
%TO.P,U4,3*%
%TO.N,+3V3*%
X115159000Y-95759000D03*
%TO.P,U4,2*%
%TO.N,Net-(U4-Pad2)*%
X115159000Y-98299000D03*
D11*
%TO.P,U4,1*%
%TO.N,Net-(U4-Pad1)*%
X115159000Y-100839000D03*
%TD*%
D10*
%TO.P,U2,8*%
%TO.N,+5V*%
X54640000Y-82183000D03*
%TO.P,U2,7*%
%TO.N,GND*%
X54640000Y-79643000D03*
%TO.P,U2,6*%
%TO.N,Net-(U2-Pad6)*%
X54640000Y-77103000D03*
%TO.P,U2,5*%
%TO.N,GND*%
X54640000Y-74563000D03*
%TO.P,U2,4*%
%TO.N,Net-(SW7-Pad2)*%
X54640000Y-72023000D03*
%TO.P,U2,3*%
%TO.N,Net-(U2-Pad3)*%
X54640000Y-69483000D03*
%TO.P,U2,2*%
%TO.N,Net-(U2-Pad2)*%
X54640000Y-66943000D03*
D11*
%TO.P,U2,1*%
%TO.N,Net-(U2-Pad1)*%
X54640000Y-64403000D03*
%TD*%
D10*
%TO.P,U1,25*%
%TO.N,/LCD_SCLK*%
X95146000Y-68247000D03*
%TO.P,U1,23*%
%TO.N,Net-(U1-Pad23)*%
X95146000Y-73327000D03*
%TO.P,U1,24*%
%TO.N,Net-(U1-Pad24)*%
X95146000Y-70787000D03*
%TO.P,U1,26*%
%TO.N,/LCD_RST*%
X95146000Y-65707000D03*
%TO.P,U1,27*%
%TO.N,/LCD_DC*%
X95146000Y-63167000D03*
D11*
%TO.P,U1,30*%
%TO.N,/SW0*%
X95146000Y-55547000D03*
D10*
%TO.P,U1,29*%
%TO.N,/LCD_DN*%
X95146000Y-58087000D03*
%TO.P,U1,28*%
%TO.N,/LCD_SCE*%
X95146000Y-60627000D03*
%TO.P,U1,22*%
%TO.N,Net-(U1-Pad22)*%
X95146000Y-75867000D03*
%TO.P,U1,21*%
%TO.N,Net-(U1-Pad21)*%
X95146000Y-78407000D03*
%TO.P,U1,20*%
%TO.N,/Si4_RST*%
X95146000Y-80947000D03*
%TO.P,U1,19*%
%TO.N,GND*%
X95146000Y-83487000D03*
%TO.P,U1,18*%
%TO.N,Net-(U1-Pad18)*%
X95146000Y-86027000D03*
%TO.P,U1,17*%
%TO.N,Net-(U1-Pad17)*%
X95146000Y-88567000D03*
%TO.P,U1,16*%
%TO.N,Net-(U1-Pad16)*%
X95146000Y-91107000D03*
%TO.P,U1,15*%
%TO.N,+5V*%
X80672000Y-90747000D03*
%TO.P,U1,14*%
%TO.N,GND*%
X80672000Y-88207000D03*
%TO.P,U1,13*%
%TO.N,Net-(U1-Pad13)*%
X80672000Y-85667000D03*
%TO.P,U1,12*%
%TO.N,+5V*%
X80672000Y-83127000D03*
%TO.P,U1,11*%
%TO.N,/SW5*%
X80672000Y-80587000D03*
%TO.P,U1,10*%
%TO.N,/SW4*%
X80672000Y-78047000D03*
%TO.P,U1,9*%
%TO.N,/Si4_SCLK*%
X80672000Y-75507000D03*
%TO.P,U1,8*%
%TO.N,/Si4_SDIO*%
X80672000Y-72967000D03*
%TO.P,U1,7*%
%TO.N,/SW3*%
X80672000Y-70427000D03*
%TO.P,U1,6*%
%TO.N,/SW2*%
X80672000Y-67887000D03*
%TO.P,U1,5*%
%TO.N,/SW1*%
X80672000Y-65347000D03*
%TO.P,U1,4*%
%TO.N,/Vol*%
X80672000Y-62807000D03*
%TO.P,U1,3*%
%TO.N,Net-(U1-Pad3)*%
X80672000Y-60267000D03*
%TO.P,U1,2*%
%TO.N,+3V3*%
X80672000Y-57727000D03*
D11*
%TO.P,U1,1*%
%TO.N,Net-(U1-Pad1)*%
X80672000Y-55187000D03*
%TD*%
D12*
%TO.P,SW7,3*%
%TO.N,GND*%
X61722000Y-94488000D03*
%TO.P,SW7,1*%
%TO.N,Net-(SW7-Pad1)*%
X56642000Y-94488000D03*
%TO.P,SW7,2*%
%TO.N,Net-(SW7-Pad2)*%
X59182000Y-94488000D03*
%TD*%
D13*
%TO.P,SW6,1*%
%TO.N,GND*%
X108458000Y-125326000D03*
%TO.P,SW6,2*%
%TO.N,/SW5*%
X112958000Y-125326000D03*
%TO.P,SW6,1*%
%TO.N,GND*%
X108458000Y-131826000D03*
%TO.P,SW6,2*%
%TO.N,/SW5*%
X112958000Y-131826000D03*
%TD*%
%TO.P,SW5,1*%
%TO.N,GND*%
X98679000Y-125326000D03*
%TO.P,SW5,2*%
%TO.N,/SW4*%
X103179000Y-125326000D03*
%TO.P,SW5,1*%
%TO.N,GND*%
X98679000Y-131826000D03*
%TO.P,SW5,2*%
%TO.N,/SW4*%
X103179000Y-131826000D03*
%TD*%
%TO.P,SW4,1*%
%TO.N,GND*%
X89154000Y-125326000D03*
%TO.P,SW4,2*%
%TO.N,/SW3*%
X93654000Y-125326000D03*
%TO.P,SW4,1*%
%TO.N,GND*%
X89154000Y-131826000D03*
%TO.P,SW4,2*%
%TO.N,/SW3*%
X93654000Y-131826000D03*
%TD*%
%TO.P,SW3,1*%
%TO.N,GND*%
X79375000Y-125199000D03*
%TO.P,SW3,2*%
%TO.N,/SW2*%
X83875000Y-125199000D03*
%TO.P,SW3,1*%
%TO.N,GND*%
X79375000Y-131699000D03*
%TO.P,SW3,2*%
%TO.N,/SW2*%
X83875000Y-131699000D03*
%TD*%
%TO.P,SW2,1*%
%TO.N,GND*%
X69596000Y-125072000D03*
%TO.P,SW2,2*%
%TO.N,/SW1*%
X74096000Y-125072000D03*
%TO.P,SW2,1*%
%TO.N,GND*%
X69596000Y-131572000D03*
%TO.P,SW2,2*%
%TO.N,/SW1*%
X74096000Y-131572000D03*
%TD*%
%TO.P,SW1,1*%
%TO.N,GND*%
X59055000Y-125072000D03*
%TO.P,SW1,2*%
%TO.N,/SW0*%
X63555000Y-125072000D03*
%TO.P,SW1,1*%
%TO.N,GND*%
X59055000Y-131572000D03*
%TO.P,SW1,2*%
%TO.N,/SW0*%
X63555000Y-131572000D03*
%TD*%
D14*
%TO.P,RV1,*%
%TO.N,*%
X54088000Y-105657000D03*
X63688000Y-105657000D03*
D15*
%TO.P,RV1,3*%
%TO.N,+5V*%
X61388000Y-113157000D03*
%TO.P,RV1,2*%
%TO.N,/Vol*%
X58888000Y-113157000D03*
D16*
%TO.P,RV1,1*%
%TO.N,GND*%
X56388000Y-113157000D03*
%TD*%
D17*
%TO.N,/Vol*%
X67564000Y-79121000D03*
%TO.N,/LCD_DN*%
X102108000Y-64516000D03*
%TO.N,/Si4_SCLK*%
X95631000Y-98044000D03*
%TO.N,Net-(U4-Pad6)*%
X138938000Y-64008000D03*
%TO.N,Net-(U5-Pad5)*%
X146431000Y-58547000D03*
%TO.N,Net-(U5-Pad2)*%
X144526000Y-62357000D03*
%TO.N,Net-(U5-Pad1)*%
X136525000Y-68326000D03*
%TD*%
D18*
%TO.N,/Vol*%
X67564000Y-79121000D02*
X67564000Y-96393000D01*
X58888000Y-105069000D02*
X58888000Y-113157000D01*
X67564000Y-96393000D02*
X58888000Y-105069000D01*
%TO.N,/SW0*%
X63555000Y-125072000D02*
X63555000Y-118055000D01*
X73645990Y-107964010D02*
X73645990Y-56148010D01*
X63555000Y-118055000D02*
X73645990Y-107964010D01*
X73645990Y-56148010D02*
X77597000Y-52197000D01*
X91796000Y-52197000D02*
X95146000Y-55547000D01*
X77597000Y-52197000D02*
X91796000Y-52197000D01*
X63555000Y-125072000D02*
X63555000Y-131572000D01*
%TO.N,/SW1*%
X74096000Y-71923000D02*
X80672000Y-65347000D01*
X74096000Y-125072000D02*
X74096000Y-71923000D01*
X74096000Y-125072000D02*
X74096000Y-131572000D01*
%TO.N,/SW2*%
X76200000Y-101346000D02*
X76200000Y-72359000D01*
X83875000Y-109021000D02*
X76200000Y-101346000D01*
X76200000Y-72359000D02*
X80672000Y-67887000D01*
X83875000Y-125199000D02*
X83875000Y-109021000D01*
X83875000Y-125199000D02*
X83875000Y-131699000D01*
%TO.N,/SW3*%
X93654000Y-125326000D02*
X93654000Y-116895000D01*
X93654000Y-116895000D02*
X77343000Y-100584000D01*
X77343000Y-73756000D02*
X80672000Y-70427000D01*
X77343000Y-100584000D02*
X77343000Y-73756000D01*
X93654000Y-125326000D02*
X93654000Y-131826000D01*
%TO.N,/SW4*%
X103179000Y-125326000D02*
X78359000Y-100506000D01*
X78359000Y-80360000D02*
X80672000Y-78047000D01*
X78359000Y-100506000D02*
X78359000Y-80360000D01*
X103179000Y-125326000D02*
X103179000Y-131826000D01*
%TO.N,/SW5*%
X112958000Y-125326000D02*
X112958000Y-118038000D01*
X112958000Y-118038000D02*
X84709000Y-89789000D01*
X84709000Y-84624000D02*
X80672000Y-80587000D01*
X84709000Y-89789000D02*
X84709000Y-84624000D01*
X112958000Y-125326000D02*
X112958000Y-131826000D01*
%TO.N,/LCD_DN*%
X106137000Y-68545000D02*
X102108000Y-64516000D01*
X106137000Y-68708000D02*
X106137000Y-68545000D01*
%TO.N,/LCD_SCE*%
X95146000Y-60627000D02*
X95146000Y-60094000D01*
X101518000Y-60627000D02*
X106137000Y-56008000D01*
X95146000Y-60627000D02*
X101518000Y-60627000D01*
%TO.N,/LCD_RST*%
X98978000Y-65707000D02*
X106137000Y-58548000D01*
X95146000Y-65707000D02*
X98978000Y-65707000D01*
%TO.N,/Si4_RST*%
X104359000Y-90160000D02*
X104359000Y-90679000D01*
X95146000Y-80947000D02*
X104359000Y-90160000D01*
%TO.N,/Si4_SCLK*%
X81847001Y-76682001D02*
X81889001Y-76682001D01*
X80672000Y-75507000D02*
X81847001Y-76682001D01*
X81889001Y-76682001D02*
X90424000Y-85217000D01*
X90424000Y-92837000D02*
X95631000Y-98044000D01*
X90424000Y-85217000D02*
X90424000Y-92837000D01*
%TO.N,/Si4_SDIO*%
X80672000Y-72967000D02*
X91440000Y-83735000D01*
X91440000Y-83735000D02*
X91440000Y-91440000D01*
X100839000Y-100839000D02*
X104359000Y-100839000D01*
X91440000Y-91440000D02*
X100839000Y-100839000D01*
%TO.N,/LCD_SCLK*%
X95146000Y-69047998D02*
X95146000Y-68247000D01*
X104359000Y-78260998D02*
X95146000Y-69047998D01*
X104359000Y-88139000D02*
X104359000Y-78260998D01*
%TO.N,Net-(SW7-Pad2)*%
X59182000Y-76565000D02*
X54640000Y-72023000D01*
X59182000Y-94488000D02*
X59182000Y-76565000D01*
%TO.N,Net-(U4-Pad6)*%
X138938000Y-66986002D02*
X138938000Y-64008000D01*
X117785002Y-88139000D02*
X138938000Y-66986002D01*
X115159000Y-88139000D02*
X117785002Y-88139000D01*
%TO.N,Net-(U4-Pad5)*%
X116784011Y-97253011D02*
X126749000Y-107218000D01*
X116784011Y-92304011D02*
X116784011Y-97253011D01*
X115159000Y-90679000D02*
X116784011Y-92304011D01*
%TO.N,Net-(U4-Pad2)*%
X116334001Y-99474001D02*
X116334001Y-101883001D01*
X116334001Y-101883001D02*
X126749000Y-112298000D01*
X115159000Y-98299000D02*
X116334001Y-99474001D01*
%TO.N,Net-(U4-Pad1)*%
X115159000Y-103248000D02*
X126749000Y-114838000D01*
X115159000Y-100839000D02*
X115159000Y-103248000D01*
%TO.N,Net-(U5-Pad6)*%
X149210000Y-53624000D02*
X149128000Y-53624000D01*
X116937000Y-56008000D02*
X117093000Y-56008000D01*
X146826000Y-56008000D02*
X149210000Y-53624000D01*
X116937000Y-56008000D02*
X146826000Y-56008000D01*
%TO.N,Net-(U5-Pad5)*%
X116937000Y-58548000D02*
X141746000Y-58548000D01*
X146430000Y-58548000D02*
X146431000Y-58547000D01*
X141746000Y-58548000D02*
X146430000Y-58548000D01*
%TO.N,Net-(U5-Pad2)*%
X120748000Y-62357000D02*
X144526000Y-62357000D01*
X116937000Y-66168000D02*
X120748000Y-62357000D01*
%TO.N,Net-(U5-Pad1)*%
X116937000Y-68708000D02*
X132206000Y-68708000D01*
X136143000Y-68708000D02*
X136525000Y-68326000D01*
X132206000Y-68708000D02*
X136143000Y-68708000D01*
%TO.N,Net-(U6-Pad7)*%
X132428000Y-122458000D02*
X146445000Y-108441000D01*
X126749000Y-122458000D02*
X132428000Y-122458000D01*
%TO.N,Net-(U6-Pad4)*%
X137508000Y-124998000D02*
X146445000Y-116061000D01*
X126749000Y-124998000D02*
X137508000Y-124998000D01*
%TD*%
M02*
