M48
; DRILL file {KiCad 5.1.6-c6e7f7d~87~ubuntu20.04.1} date Tue Nov  3 02:20:11 2020
; FORMAT={-:-/ absolute / inch / decimal}
; #@! TF.CreationDate,2020-11-03T02:20:11-05:00
; #@! TF.GenerationSoftware,Kicad,Pcbnew,5.1.6-c6e7f7d~87~ubuntu20.04.1
FMAT,2
INCH
T1C0.0157
T2C0.0354
T3C0.0394
T4C0.0433
%
G90
G05
T1
X2.66Y-3.115
X3.765Y-3.86
X4.02Y-2.54
X5.375Y-2.69
X5.47Y-2.52
X5.69Y-2.455
X5.765Y-2.305
T2
X2.23Y-3.72
X2.33Y-3.72
X2.43Y-3.72
T3
X5.3744Y-2.1112
X5.4744Y-2.1112
X5.5744Y-2.1112
X5.6744Y-2.1112
X5.7744Y-2.1112
X5.8744Y-2.1112
X5.9744Y-2.1112
X6.0744Y-2.1112
X4.9901Y-4.0212
X4.9901Y-4.1212
X4.9901Y-4.2212
X4.9901Y-4.3212
X4.9901Y-4.4212
X4.9901Y-4.5212
X4.9901Y-4.6212
X4.9901Y-4.7212
X4.9901Y-4.8212
X4.9901Y-4.9212
X3.1761Y-2.1727
X3.1761Y-2.2727
X3.1761Y-2.3727
X3.1761Y-2.4727
X3.1761Y-2.5727
X3.1761Y-2.6727
X3.1761Y-2.7727
X3.1761Y-2.8727
X3.1761Y-2.9727
X3.1761Y-3.0727
X3.1761Y-3.1727
X3.1761Y-3.2727
X3.1761Y-3.3727
X3.1761Y-3.4727
X3.1761Y-3.5727
X3.7459Y-2.1869
X3.7459Y-2.2869
X3.7459Y-2.3869
X3.7459Y-2.4869
X3.7459Y-2.5869
X3.7459Y-2.6869
X3.7459Y-2.7869
X3.7459Y-2.8869
X3.7459Y-2.9869
X3.7459Y-3.0869
X3.7459Y-3.1869
X3.7459Y-3.2869
X3.7459Y-3.3869
X3.7459Y-3.4869
X3.7459Y-3.5869
X5.7656Y-4.0693
X5.7656Y-4.1693
X5.7656Y-4.2693
X5.7656Y-4.3693
X5.7656Y-4.4693
X5.7656Y-4.5693
X5.7656Y-4.6693
X5.7656Y-4.7693
X5.7656Y-4.8693
X2.1512Y-2.5356
X2.1512Y-2.6356
X2.1512Y-2.7356
X2.1512Y-2.8356
X2.1512Y-2.9356
X2.1512Y-3.0356
X2.1512Y-3.1356
X2.1512Y-3.2356
X4.1086Y-3.47
X4.1086Y-3.57
X4.1086Y-3.67
X4.1086Y-3.77
X4.1086Y-3.87
X4.1086Y-3.97
X4.5338Y-3.47
X4.5338Y-3.57
X4.5338Y-3.67
X4.5338Y-3.77
X4.5338Y-3.87
X4.5338Y-3.97
X4.1786Y-2.205
X4.1786Y-2.305
X4.1786Y-2.405
X4.1786Y-2.505
X4.1786Y-2.605
X4.1786Y-2.705
X4.6038Y-2.205
X4.6038Y-2.305
X4.6038Y-2.405
X4.6038Y-2.505
X4.6038Y-2.605
X4.6038Y-2.705
X2.22Y-4.455
X2.3184Y-4.455
X2.4169Y-4.455
T4
X2.74Y-4.9241
X2.74Y-5.18
X2.9172Y-4.9241
X2.9172Y-5.18
X2.325Y-4.9241
X2.325Y-5.18
X2.5022Y-4.9241
X2.5022Y-5.18
X3.51Y-4.9341
X3.51Y-5.19
X3.6872Y-4.9341
X3.6872Y-5.19
X3.125Y-4.9291
X3.125Y-5.185
X3.3022Y-4.9291
X3.3022Y-5.185
X4.27Y-4.9341
X4.27Y-5.19
X4.4472Y-4.9341
X4.4472Y-5.19
X3.885Y-4.9341
X3.885Y-5.19
X4.0622Y-4.9341
X4.0622Y-5.19
T4
G00X2.1294Y-4.1735
M15
G01X2.1294Y-4.1459
M16
G05
G00X2.5074Y-4.1735
M15
G01X2.5074Y-4.1459
M16
G05
T0
M30
